grf
version=1
nRows=7
nColumns=37
inDegrees=no
endheader
time	ground_force_1_vx	ground_force_1_vy	ground_force_1_vz	ground_force_1_px	ground_force_1_py	ground_force_1_pz	ground_moment_1_mx	ground_moment_1_my	ground_moment_1_mz	ground_force_2_vx	ground_force_2_vy	ground_force_2_vz	ground_force_2_px	ground_force_2_py	ground_force_2_pz	ground_moment_2_mx	ground_moment_2_my	ground_moment_2_mz	ground_force_3_vx	ground_force_3_vy	ground_force_3_vz	ground_force_3_px	ground_force_3_py	ground_force_3_pz	ground_moment_3_mx	ground_moment_3_my	ground_moment_3_mz	ground_force_4_vx	ground_force_4_vy	ground_force_4_vz	ground_force_4_px	ground_force_4_py	ground_force_4_pz	ground_moment_4_mx	ground_moment_4_my	ground_moment_4_mz
      0.00000000	      0.00000000	     -0.00000000	      0.00000000	      0.00000000	      0.00000000	      0.00000000	      0.00000000	      0.00000000	      0.00000000	      1.16479659	     42.20744705	   -312.24438477	   -296.92345888	  -1148.68357399	      0.00000000	      0.00000000	      0.00000000	   1718.85946834	      2.73660861	    -46.78376401	   -330.99572754	   -303.27787802	   -702.86514066	      0.00000000	      0.00000000	     -0.00000000	  -2329.50576870	      0.00000000	     -0.00000000	      0.00000000	      0.00000000	      0.00000000	      0.00000000	      0.00000000	      0.00000000	      0.00000000
      0.01000000	      0.00000000	     -0.00000000	      0.00000000	      0.00000000	      0.00000000	      0.00000000	      0.00000000	      0.00000000	      0.00000000	      1.44994891	     42.37688446	   -312.81192017	   -296.77004447	  -1147.44510221	      0.00000000	      0.00000000	      0.00000000	   1736.44489671	      2.31976161	    -46.85914240	   -328.96994019	   -303.67096116	   -705.25145120	      0.00000000	      0.00000000	     -0.00000000	  -2198.26683032	      0.00000000	     -0.00000000	      0.00000000	      0.00000000	      0.00000000	      0.00000000	      0.00000000	      0.00000000	      0.00000000
      0.02000000	      0.00000000	     -0.00000000	      0.00000000	      0.00000000	      0.00000000	      0.00000000	      0.00000000	      0.00000000	      0.00000000	      1.17291415	     42.05638504	   -313.00979614	   -296.92686530	  -1147.91332996	      0.00000000	      0.00000000	      0.00000000	   1708.93033828	      2.23090325	    -46.73525248	   -330.34912109	   -303.16841494	   -702.65777343	      0.00000000	      0.00000000	     -0.00000000	  -2039.32803409	      0.00000000	     -0.00000000	      0.00000000	      0.00000000	      0.00000000	      0.00000000	      0.00000000	      0.00000000	      0.00000000
      0.03000000	      0.00000000	     -0.00000000	      0.00000000	      0.00000000	      0.00000000	      0.00000000	      0.00000000	      0.00000000	      0.00000000	      1.54053330	     42.20869446	   -313.06396484	   -296.16112407	  -1148.28771982	      0.00000000	      0.00000000	      0.00000000	   1597.02182935	      2.39518917	    -46.18163691	   -330.64660645	   -302.96735319	   -703.24776952	      0.00000000	      0.00000000	     -0.00000000	  -2113.83558932	      0.00000000	     -0.00000000	      0.00000000	      0.00000000	      0.00000000	      0.00000000	      0.00000000	      0.00000000	      0.00000000
      0.04000000	      0.00000000	     -0.00000000	      0.00000000	      0.00000000	      0.00000000	      0.00000000	      0.00000000	      0.00000000	      0.00000000	      1.32525516	     42.34983444	   -312.66201782	   -296.70696979	  -1148.40188842	      0.00000000	      0.00000000	      0.00000000	   1595.95666081	      2.58547294	    -46.35608303	   -328.75418091	   -303.05269256	   -704.38706886	      0.00000000	      0.00000000	     -0.00000000	  -2051.18903826	      0.00000000	     -0.00000000	      0.00000000	      0.00000000	      0.00000000	      0.00000000	      0.00000000	      0.00000000	      0.00000000
      0.05000000	      0.00000000	     -0.00000000	      0.00000000	      0.00000000	      0.00000000	      0.00000000	      0.00000000	      0.00000000	      0.00000000	      1.21075571	     41.86587906	   -313.11914062	   -297.21489787	  -1147.68128770	      0.00000000	     -0.00000000	      0.00000000	   1821.67340033	      2.58532609	    -46.07860195	   -328.80072021	   -303.25364632	   -703.70121003	      0.00000000	      0.00000000	     -0.00000000	  -2167.47947021	      0.00000000	     -0.00000000	      0.00000000	      0.00000000	      0.00000000	      0.00000000	      0.00000000	      0.00000000	      0.00000000
      0.06000000	      0.00000000	     -0.00000000	      0.00000000	      0.00000000	      0.00000000	      0.00000000	      0.00000000	      0.00000000	      0.00000000	      0.77675319	     42.49000168	   -311.65451050	   -297.55691644	  -1147.81530782	      0.00000000	      0.00000000	      0.00000000	   1516.75869957	      2.40776433	    -45.95231639	   -328.54898071	   -303.05899525	   -704.04526374	      0.00000000	      0.00000000	     -0.00000000	  -2224.38539524	      0.00000000	     -0.00000000	      0.00000000	      0.00000000	      0.00000000	      0.00000000	      0.00000000	      0.00000000	      0.00000000
